<?xml version="1.0" encoding="UTF-8" standalone="no"?>
<svg
   xmlns:dc="http://purl.org/dc/elements/1.1/"
   xmlns:cc="http://creativecommons.org/ns#"
   xmlns:rdf="http://www.w3.org/1999/02/22-rdf-syntax-ns#"
   xmlns:svg="http://www.w3.org/2000/svg"
   xmlns="http://www.w3.org/2000/svg"
   id="svg16"
   xml:space="preserve"
   viewBox="0 0 1024 768"
   y="0px"
   x="0px"
   version="1.1"><metadata
     id="metadata22"><rdf:RDF><cc:Work
         rdf:about=""><dc:format>image/svg+xml</dc:format><dc:type
           rdf:resource="http://purl.org/dc/dcmitype/StillImage" /></cc:Work></rdf:RDF></metadata><defs
     id="defs20" /><style
     id="style2">
#logo-fade{
opacity: 0;
animation: fadeIn 4s ease-in forwards;
}

@keyframes fadeIn { 0% { opacity:0; } 50% { opacity:0; } 100% { opacity:1; } }
@keyframes fadeOut { from { opacity:1; } to { opacity:0; } }

#outline{
opacity: 1;
stroke-dasharray: 2000;
stroke-dashoffset: 2000;
animation: dash 4s ease-in-out forwards;
}

@keyframes dash {
  0% {
    opacity: 1;
    stroke-dashoffset: 2000;
  }
  50% {
    opacity: 1;
    stroke-dashoffset: 1000;
  }
  100% {
    opacity: 0;
    stroke-dashoffset: 0;
  }
}
</style><path
     stroke-width="4"
     stroke="#2b408c"
     fill="none"
     d="m456.74 358.01c-7.13 0-11.88 4.46-11.88 11.52 0 13.82 18.07 17.21 18.07 28.37 0 3.88-2.01 5.97-5.83 5.97-3.89 0-5.98-2.73-6.12-8.21-0.07-0.57-0.43-0.93-1.01-0.93h-4.53c-0.65 0-1.01 0.36-1.01 1.01 0.29 8.71 5.11 14.25 12.6 14.25s12.45-4.68 12.45-12.09c0-14.69-18.14-18.08-18.14-28.37 0-3.6 1.94-5.47 5.47-5.47 3.38 0 5.33 2.44 5.55 7.77 0 0.58 0.36 0.94 0.93 0.94h4.54c0.64 0 0.93-0.36 0.93-0.94-0.28-8.42-4.97-13.82-12.02-13.82zm193.89 0c-7.27 0-12.24 5.47-12.24 13.32v36.86c0 0.65 0.36 1.01 0.93 1.01h4.61c0.58 0 0.94-0.36 0.94-1.01v-18h5.83l6.84 18.15c0.15 0.57 0.43 0.86 1.01 0.86h4.9c0.64 0 1.15-0.43 0.93-1.08l-7.7-19.44c3.74-2.02 6.41-6.05 6.41-11.59v-5.76c0-7.85-5.05-13.32-12.46-13.32zm-315.53 0.07c-6.98 0-11.66 5.04-11.66 12.67v35.71c0 1.73 1.22 2.96 2.88 2.96h9.57c7.27 0 12.24-5.04 12.24-12.82v-3.31c0-4.54-2.23-8.21-5.83-10.01 2.95-1.66 4.75-5.11 4.75-9.36v-3.17c0-7.63-4.75-12.67-11.95-12.67zm61.44 0c-7.41 0-12.31 5.33-12.31 13.25v36.86c0 0.65 0.36 1.01 0.94 1.01h4.61c0.57 0 0.93-0.36 0.93-1.01v-15.98h11.67v15.98c0 0.65 0.43 1.01 1 1.01h4.54c0.65 0 1.01-0.36 1.01-1.01v-36.86c0-7.92-4.97-13.25-12.39-13.25zm191.68 0c-7.42 0-12.32 5.33-12.32 13.25v36.86c0 0.65 0.36 1.01 0.94 1.01h4.61c0.58 0 0.93-0.36 0.93-1.01v-15.98h11.67v15.98c0 0.65 0.43 1.01 1.01 1.01h4.53c0.65 0 1.01-0.36 1.01-1.01v-36.86c0-7.92-4.97-13.25-12.38-13.25zm124.26 0c-7.41 0-12.31 5.33-12.31 13.25v36.86c0 0.65 0.36 1.01 0.94 1.01h4.6c0.58 0 0.94-0.36 0.94-1.01v-15.98h11.66v15.98c0 0.65 0.44 1.01 1.01 1.01h4.54c0.65 0 1.01-0.36 1.01-1.01v-36.86c0-7.92-4.97-13.25-12.39-13.25zm-458.44 0.41c-6.2 0-10.68 1.4-13.43 4.19-2.49 2.55-3.74 6.56-3.74 12.02v34.29h20.51v-50.5h-3.34zm10.21 0v50.5h20.52v-34.29c0-2.62-0.3-4.94-0.89-6.97-1.76-6.16-7.19-9.24-16.29-9.24h-3.34zm269.29 0.31c-7.28 0-12.25 5.47-12.25 12.89v36.5c0 0.65 0.36 1.01 0.94 1.01h4.61c0.58 0 0.94-0.36 0.94-1.01v-21.02h10.72c0.58 0 0.94-0.36 0.94-0.94v-4.1c0-0.58-0.36-0.94-0.94-0.94h-10.72v-9.36c0-4.1 2.52-6.98 6.26-6.98h5.83c0.65 0 1.01-0.36 1.01-1.01v-4.1c0-0.58-0.36-0.94-1.01-0.94h-6.33zm230.56 0c-0.65 0-1.01 0.36-1.01 0.94v48.45c0 0.65 0.36 1.01 1.01 1.01h4.53c0.58 0 0.94-0.36 0.94-1.01v-21.53h11.08v21.53c0 0.65 0.36 1.01 1.01 1.01h4.54c0.58 0 0.93-0.36 0.93-1.01v-48.45c0-0.58-0.35-0.94-0.93-0.94h-4.54c-0.65 0-1.01 0.36-1.01 0.94v20.95h-11.08v-20.95c0-0.58-0.36-0.94-0.94-0.94h-4.53zm-429 5.33c3.46 0 5.47 2.37 5.47 6.26v4.03c0 3.96-2.09 6.34-5.47 6.34h-5.18v-10.37c0-3.89 1.94-6.26 5.18-6.26zm315.6 0c3.46 0 5.83 2.73 5.83 6.91v6.19c0 4.25-2.37 6.99-6.12 6.99h-5.54v-13.18c0-4.18 2.38-6.91 5.83-6.91zm-254.16 0.07c3.75 0 5.84 2.52 5.84 6.84v15.19h-11.67v-15.19c0-4.32 2.16-6.84 5.83-6.84zm191.68 0c3.74 0 5.83 2.52 5.83 6.84v15.19h-11.67v-15.19c0-4.32 2.16-6.84 5.84-6.84zm124.26 0c3.75 0 5.83 2.52 5.83 6.84v15.19h-11.66v-15.19c0-4.32 2.16-6.84 5.83-6.84zm-382.56 22.46h5.83c3.67 0 5.76 2.45 5.76 6.56v3.74c0 4.03-2.09 6.48-5.76 6.48h-5.83v-16.78z"
     id="outline" /><g
     style="opacity:0"
     id="logo-fade"><g
       style="fill:#2b408c"
       transform="translate(0.068005)"
       id="logo-group"><path
         stroke-miterlimit="2"
         d="m 342.23,383.28 c 2.952,-1.656 4.752,-5.112 4.752,-9.36 v -3.168 c 0,-7.632 -4.752,-12.672 -11.952,-12.672 -6.984,0 -11.664,5.04 -11.664,12.672 v 35.712 c 0,1.728 1.224,2.952 2.88,2.952 h 9.576 c 7.272,0 12.24,-5.04 12.24,-12.816 v -3.312 c 0,-4.536 -2.232,-8.208 -5.832,-10.008 z m -12.384,-12.888 c 0,-3.888 1.944,-6.264 5.184,-6.264 3.456,0 5.472,2.376 5.472,6.264 v 4.032 c 0,3.96 -2.088,6.336 -5.472,6.336 h -5.184 z m 11.592,26.568 c 0,4.032 -2.088,6.48 -5.76,6.48 h -5.832 v -16.776 h 5.832 c 3.672,0 5.76,2.448 5.76,6.552 z"
         style="font-variant-ligatures:none;stroke-width:0;stroke-miterlimit:2"
         id="path222518" /><path
         stroke-miterlimit="2"
         d="m 385.1,409.2 h 4.608 c 0.576,0 0.936,-0.36 0.936,-1.008 v -15.984 h 11.664 v 15.984 c 0,0.648 0.432,1.008 1.008,1.008 h 4.536 c 0.648,0 1.008,-0.36 1.008,-1.008 v -36.864 c 0,-7.92 -4.968,-13.248 -12.384,-13.248 -7.416,0 -12.312,5.328 -12.312,13.248 v 36.864 c 0,0.648 0.36,1.008 0.936,1.008 z m 5.544,-22.968 v -15.19 c 0,-4.32 2.16,-6.84 5.832,-6.84 3.744,0 5.832,2.52 5.832,6.84 v 15.192 z"
         style="font-variant-ligatures:none;stroke-width:0;stroke-miterlimit:2"
         id="path222520" /><path
         stroke-miterlimit="2"
         d="m 456.96,409.99 c 7.488,0 12.456,-4.68 12.456,-12.096 0,-14.688 -18.144,-18.072 -18.144,-28.368 0,-3.6 1.944,-5.472 5.472,-5.472 3.384,0 5.328,2.448 5.544,7.776 0,0.576 0.36,0.936 0.936,0.936 h 4.536 c 0.648,0 0.936,-0.36 0.936,-0.936 -0.288,-8.424 -4.968,-13.824 -12.024,-13.824 -7.128,0 -11.88,4.464 -11.88,11.52 0,13.824 18.072,17.208 18.072,28.368 0,3.888 -2.016,5.976 -5.832,5.976 -3.888,0 -5.976,-2.736 -6.12,-8.208 -0.072,-0.576 -0.432,-0.936 -1.008,-0.936 h -4.536 c -0.648,0 -1.008,0.36 -1.008,1.008 0.288,8.712 5.112,14.256 12.6,14.256 z"
         style="font-variant-ligatures:none;stroke-width:0;stroke-miterlimit:2"
         id="path222522" /><path
         stroke-miterlimit="2"
         d="m 522.16,409.2 h 4.608 c 0.576,0 0.936,-0.36 0.936,-1.008 v -21.024 h 10.728 c 0.576,0 0.936,-0.36 0.936,-0.936 v -4.104 c 0,-0.576 -0.36,-0.936 -0.936,-0.936 h -10.728 v -9.36 c 0,-4.104 2.52,-6.984 6.264,-6.984 h 5.832 c 0.648,0 1.008,-0.36 1.008,-1.008 v -4.104 c 0,-0.576 -0.36,-0.936 -1.008,-0.936 h -6.336 c -7.272,0 -12.24,5.472 -12.24,12.888 v 36.504 c 0,0.648 0.36,1.008 0.936,1.008 z"
         style="font-variant-ligatures:none;stroke-width:0;stroke-miterlimit:2"
         id="path222524" /><path
         stroke-miterlimit="2"
         d="m 576.77,409.2 h 4.608 c 0.576,0 0.936,-0.36 0.936,-1.008 v -15.984 h 11.664 v 15.984 c 0,0.648 0.432,1.008 1.008,1.008 h 4.536 c 0.648,0 1.008,-0.36 1.008,-1.008 v -36.864 c 0,-7.92 -4.968,-13.248 -12.384,-13.248 -7.416,0 -12.312,5.328 -12.312,13.248 v 36.864 c 0,0.648 0.36,1.008 0.936,1.008 z m 5.544,-22.968 v -15.19 c 0,-4.32 2.16,-6.84 5.832,-6.84 3.744,0 5.832,2.52 5.832,6.84 v 15.192 z"
         style="font-variant-ligatures:none;stroke-width:0;stroke-miterlimit:2"
         id="path222526" /><path
         stroke-miterlimit="2"
         d="m 639.26,409.2 h 4.608 c 0.576,0 0.936,-0.36 0.936,-1.008 v -18 h 5.832 l 6.84,18.144 c 0.144,0.576 0.432,0.864 1.008,0.864 h 4.896 c 0.648,0 1.152,-0.432 0.936,-1.08 l -7.704,-19.44 c 3.744,-2.016 6.408,-6.048 6.408,-11.592 v -5.76 c 0,-7.848 -5.04,-13.32 -12.456,-13.32 -7.272,0 -12.24,5.472 -12.24,13.32 v 36.864 c 0,0.648 0.36,1.008 0.936,1.008 z m 5.544,-24.984 v -13.18 c 0,-4.176 2.376,-6.912 5.832,-6.912 3.456,0 5.832,2.736 5.832,6.912 v 6.192 c 0,4.248 -2.376,6.984 -6.12,6.984 z"
         style="font-variant-ligatures:none;stroke-width:0;stroke-miterlimit:2"
         id="path222528" /><path
         stroke-miterlimit="2"
         d="m 701.04,409.2 h 4.608 c 0.576,0 0.936,-0.36 0.936,-1.008 v -15.984 h 11.664 v 15.984 c 0,0.648 0.432,1.008 1.008,1.008 h 4.536 c 0.648,0 1.008,-0.36 1.008,-1.008 v -36.864 c 0,-7.92 -4.968,-13.248 -12.384,-13.248 -7.416,0 -12.312,5.328 -12.312,13.248 v 36.864 c 0,0.648 0.36,1.008 0.936,1.008 z m 5.544,-22.968 v -15.19 c 0,-4.32 2.16,-6.84 5.832,-6.84 3.744,0 5.832,2.52 5.832,6.84 v 15.192 z"
         style="font-variant-ligatures:none;stroke-width:0;stroke-miterlimit:2"
         id="path222530" /><path
         stroke-miterlimit="2"
         d="m 780.59,359.74 v 20.952 H 769.502 V 359.74 c 0,-0.576 -0.36,-0.936 -0.936,-0.936 h -4.536 c -0.648,0 -1.008,0.36 -1.008,0.936 v 48.456 c 0,0.648 0.36,1.008 1.008,1.008 h 4.536 c 0.576,0 0.936,-0.36 0.936,-1.008 v -21.528 h 11.088 v 21.528 c 0,0.648 0.36,1.008 1.008,1.008 h 4.536 c 0.576,0 0.936,-0.36 0.936,-1.008 V 359.74 c 0,-0.576 -0.36,-0.936 -0.936,-0.936 h -4.536 c -0.648,0 -1.008,0.36 -1.008,0.936 z"
         style="font-variant-ligatures:none;stroke-width:0;stroke-miterlimit:2"
         id="path222532" /><path
         style="stroke-width:1.05540001"
         d="m 264.18,358.49 h 3.3393 q 13.654,0 16.288,9.2387 0.89048,3.0425 0.89048,6.9754 v 34.283 h -20.518 z m -27.382,16.214 q 0,-8.1998 3.7474,-12.021 4.1184,-4.1927 13.431,-4.1927 h 3.3393 v 50.497 h -20.518 z"
         id="icon" /></g></g></svg>